<svg width="27" height="22" viewBox="0 0 27 22" fill="none" xmlns="http://www.w3.org/2000/svg">
<path d="M0 10C1.90735e-06 4.47715 4.47715 0 10 0H23.9853C26.1955 0 27.5631 2.40844 26.4308 4.30654C25.9814 5.05973 25.2101 5.56383 24.3399 5.67304L17.75 6.5L10.2598 8.02494C4.79579 9.13738 5.31094 17.1062 10.8728 17.5058L13.8189 17.7175C15.7238 17.8544 17.1812 16.0499 16.6465 14.2165C16.2729 12.9358 16.8758 11.5721 18.0745 10.9865L19.4091 10.3345C19.8596 10.1144 20.3544 10 20.8558 10C22.9041 10 24.4563 11.8488 24.1016 13.8662L23.6288 16.5563C23.4624 17.5028 23.0548 18.3903 22.4453 19.1333L22.2047 19.4266C20.8684 21.0557 18.8723 22 16.7653 22H12C5.37258 22 1.90735e-06 16.6274 0 10Z" fill="#6C7C64"/>
</svg>
